<svg width="24" height="24" viewBox="0 0 24 24" fill="none" xmlns="http://www.w3.org/2000/svg">
<path d="M12 4.72852C4.408 4.72852 2.12632 11.5922 2.10543 11.6617L2 11.9895L2.10444 12.3173C2.12632 12.3868 4.408 19.2505 12.001 19.2505C19.592 19.2505 21.8737 12.3868 21.8946 12.3173L22 11.9895L21.8956 11.6617C21.8737 11.5922 19.592 4.72852 12 4.72852ZM12 16.1386C9.80585 16.1386 8.02148 14.2778 8.02148 11.9895C8.02148 9.70125 9.80585 7.84037 12 7.84037C14.1941 7.84037 15.9785 9.70125 15.9785 11.9895C15.9785 14.2778 14.1941 16.1386 12 16.1386Z" fill="white" fill-opacity="0.6"/>
<path d="M12 9.99994C10.916 9.99994 10 10.9159 10 11.9999C10 13.0839 10.916 13.9999 12 13.9999C13.084 13.9999 14 13.0839 14 11.9999C14 10.9159 13.084 9.99994 12 9.99994Z" fill="white" fill-opacity="0.6"/>
</svg>
